<mxfile host="app.diagrams.net" agent="Mozilla/5.0 (Windows NT 10.0; Win64; x64) AppleWebKit/537.36 (KHTML, like Gecko) Chrome/131.0.0.0 Safari/537.36" version="26.0.2" pages="2">
  <diagram name="Page-1" id="03018318-947c-dd8e-b7a3-06fadd420f32">
    <mxGraphModel dx="3354" dy="1258" grid="1" gridSize="10" guides="1" tooltips="1" connect="1" arrows="1" fold="1" page="1" pageScale="1" pageWidth="1100" pageHeight="850" background="none" math="0" shadow="0">
      <root>
        <mxCell id="0" />
        <mxCell id="1" parent="0" />
        <mxCell id="677b7b8949515195-1" value="" style="whiteSpace=wrap;html=1;rounded=0;shadow=0;labelBackgroundColor=none;strokeColor=#000000;strokeWidth=1;fillColor=none;fontFamily=Verdana;fontSize=12;fontColor=#000000;align=center;comic=1;" parent="1" vertex="1">
          <mxGeometry x="20" y="50" width="1060" height="550" as="geometry" />
        </mxCell>
        <mxCell id="3aGJddo-5EH4ExrnTLLF-4" value="&lt;font face=&quot;Tahoma&quot; style=&quot;font-size: 20px;&quot;&gt;Enrollment Reports&lt;/font&gt;" style="text;strokeColor=none;fillColor=none;html=1;fontSize=24;fontStyle=1;verticalAlign=middle;align=center;" parent="1" vertex="1">
          <mxGeometry x="440.5" y="50" width="220" height="40" as="geometry" />
        </mxCell>
        <mxCell id="b_-qBEc8-tPpr0zeS2S6-1" value="&lt;font style=&quot;font-size: 18px;&quot;&gt;fourthwallacademy.com/Dashboard/Enrollment/Sections&lt;/font&gt;" style="html=1;strokeWidth=1;shadow=0;dashed=0;shape=mxgraph.ios7ui.url;fillColor=#e0e0e0;strokeColor=#c0c0c0;buttonText=;strokeColor2=#222222;fontColor=#222222;fontSize=8;spacingTop=2;align=center;whiteSpace=wrap;" parent="1" vertex="1">
          <mxGeometry x="25" y="10" width="1050" height="32.5" as="geometry" />
        </mxCell>
        <mxCell id="ZwHE_Ob0DUc1sspuv7PX-6" value="Apply" style="html=1;shadow=0;dashed=0;shape=mxgraph.bootstrap.rrect;rSize=5;fillColor=#0085FC;strokeColor=none;align=center;spacing=15;fontSize=14;fontColor=#ffffff;sketch=0;" parent="1" vertex="1">
          <mxGeometry x="680" y="95" width="60" height="30" as="geometry" />
        </mxCell>
        <mxCell id="ZwHE_Ob0DUc1sspuv7PX-15" value="Order" style="text;html=1;align=center;verticalAlign=middle;whiteSpace=wrap;rounded=0;" parent="1" vertex="1">
          <mxGeometry x="25" y="98.5" width="60" height="30" as="geometry" />
        </mxCell>
        <mxCell id="ZwHE_Ob0DUc1sspuv7PX-16" value="Start Date" style="html=1;shadow=0;dashed=0;shape=mxgraph.bootstrap.rrect;rSize=5;strokeColor=none;strokeWidth=1;fillColor=#6C767D;fontColor=#ffffff;whiteSpace=wrap;align=right;verticalAlign=middle;fontStyle=0;fontSize=14;spacingRight=20;" parent="1" vertex="1">
          <mxGeometry x="80" y="101.5" width="140" height="27" as="geometry" />
        </mxCell>
        <mxCell id="ZwHE_Ob0DUc1sspuv7PX-17" value="" style="shape=triangle;direction=south;fillColor=#ffffff;strokeColor=none;perimeter=none;" parent="ZwHE_Ob0DUc1sspuv7PX-16" vertex="1">
          <mxGeometry x="1" y="0.5" width="10" height="5" relative="1" as="geometry">
            <mxPoint x="-17" y="-2.5" as="offset" />
          </mxGeometry>
        </mxCell>
        <mxCell id="MvRHuvZ1edDw_HGWbF9z-1" value="" style="shape=table;startSize=0;container=1;collapsible=0;childLayout=tableLayout;fontSize=16;" parent="1" vertex="1">
          <mxGeometry x="25" y="230" width="1002" height="360" as="geometry" />
        </mxCell>
        <mxCell id="MvRHuvZ1edDw_HGWbF9z-2" value="" style="shape=tableRow;horizontal=0;startSize=0;swimlaneHead=0;swimlaneBody=0;strokeColor=inherit;top=0;left=0;bottom=0;right=0;collapsible=0;dropTarget=0;fillColor=none;points=[[0,0.5],[1,0.5]];portConstraint=eastwest;fontSize=16;" parent="MvRHuvZ1edDw_HGWbF9z-1" vertex="1">
          <mxGeometry width="1002" height="40" as="geometry" />
        </mxCell>
        <mxCell id="MvRHuvZ1edDw_HGWbF9z-3" value="&lt;b&gt;Course&lt;/b&gt;" style="shape=partialRectangle;html=1;whiteSpace=wrap;connectable=0;strokeColor=inherit;overflow=hidden;fillColor=none;top=0;left=0;bottom=0;right=0;pointerEvents=1;fontSize=16;" parent="MvRHuvZ1edDw_HGWbF9z-2" vertex="1">
          <mxGeometry width="262" height="40" as="geometry">
            <mxRectangle width="262" height="40" as="alternateBounds" />
          </mxGeometry>
        </mxCell>
        <mxCell id="MvRHuvZ1edDw_HGWbF9z-4" value="&lt;b&gt;Instructor&lt;/b&gt;" style="shape=partialRectangle;html=1;whiteSpace=wrap;connectable=0;strokeColor=inherit;overflow=hidden;fillColor=none;top=0;left=0;bottom=0;right=0;pointerEvents=1;fontSize=16;" parent="MvRHuvZ1edDw_HGWbF9z-2" vertex="1">
          <mxGeometry x="262" width="210" height="40" as="geometry">
            <mxRectangle width="210" height="40" as="alternateBounds" />
          </mxGeometry>
        </mxCell>
        <mxCell id="MvRHuvZ1edDw_HGWbF9z-5" value="&lt;b&gt;# Students&lt;/b&gt;" style="shape=partialRectangle;html=1;whiteSpace=wrap;connectable=0;strokeColor=inherit;overflow=hidden;fillColor=none;top=0;left=0;bottom=0;right=0;pointerEvents=1;fontSize=16;" parent="MvRHuvZ1edDw_HGWbF9z-2" vertex="1">
          <mxGeometry x="472" width="110" height="40" as="geometry">
            <mxRectangle width="110" height="40" as="alternateBounds" />
          </mxGeometry>
        </mxCell>
        <mxCell id="MvRHuvZ1edDw_HGWbF9z-14" value="&lt;b&gt;Absences&lt;/b&gt;" style="shape=partialRectangle;html=1;whiteSpace=wrap;connectable=0;strokeColor=inherit;overflow=hidden;fillColor=none;top=0;left=0;bottom=0;right=0;pointerEvents=1;fontSize=16;" parent="MvRHuvZ1edDw_HGWbF9z-2" vertex="1">
          <mxGeometry x="582" width="100" height="40" as="geometry">
            <mxRectangle width="100" height="40" as="alternateBounds" />
          </mxGeometry>
        </mxCell>
        <mxCell id="MvRHuvZ1edDw_HGWbF9z-17" value="&lt;b&gt;Start Date&lt;/b&gt;" style="shape=partialRectangle;html=1;whiteSpace=wrap;connectable=0;strokeColor=inherit;overflow=hidden;fillColor=none;top=0;left=0;bottom=0;right=0;pointerEvents=1;fontSize=16;" parent="MvRHuvZ1edDw_HGWbF9z-2" vertex="1">
          <mxGeometry x="682" width="160" height="40" as="geometry">
            <mxRectangle width="160" height="40" as="alternateBounds" />
          </mxGeometry>
        </mxCell>
        <mxCell id="MvRHuvZ1edDw_HGWbF9z-20" value="&lt;b&gt;End Date&lt;/b&gt;" style="shape=partialRectangle;html=1;whiteSpace=wrap;connectable=0;strokeColor=inherit;overflow=hidden;fillColor=none;top=0;left=0;bottom=0;right=0;pointerEvents=1;fontSize=16;" parent="MvRHuvZ1edDw_HGWbF9z-2" vertex="1">
          <mxGeometry x="842" width="160" height="40" as="geometry">
            <mxRectangle width="160" height="40" as="alternateBounds" />
          </mxGeometry>
        </mxCell>
        <mxCell id="MvRHuvZ1edDw_HGWbF9z-6" value="" style="shape=tableRow;horizontal=0;startSize=0;swimlaneHead=0;swimlaneBody=0;strokeColor=inherit;top=0;left=0;bottom=0;right=0;collapsible=0;dropTarget=0;fillColor=none;points=[[0,0.5],[1,0.5]];portConstraint=eastwest;fontSize=16;" parent="MvRHuvZ1edDw_HGWbF9z-1" vertex="1">
          <mxGeometry y="40" width="1002" height="40" as="geometry" />
        </mxCell>
        <mxCell id="MvRHuvZ1edDw_HGWbF9z-7" value="Advanced Power Mastery" style="shape=partialRectangle;html=1;whiteSpace=wrap;connectable=0;strokeColor=#36393d;overflow=hidden;fillColor=#f9f7ed;top=0;left=0;bottom=0;right=0;pointerEvents=1;fontSize=16;" parent="MvRHuvZ1edDw_HGWbF9z-6" vertex="1">
          <mxGeometry width="262" height="40" as="geometry">
            <mxRectangle width="262" height="40" as="alternateBounds" />
          </mxGeometry>
        </mxCell>
        <mxCell id="MvRHuvZ1edDw_HGWbF9z-8" value="Siren Song" style="shape=partialRectangle;html=1;whiteSpace=wrap;connectable=0;strokeColor=#36393d;overflow=hidden;fillColor=#f9f7ed;top=0;left=0;bottom=0;right=0;pointerEvents=1;fontSize=16;" parent="MvRHuvZ1edDw_HGWbF9z-6" vertex="1">
          <mxGeometry x="262" width="210" height="40" as="geometry">
            <mxRectangle width="210" height="40" as="alternateBounds" />
          </mxGeometry>
        </mxCell>
        <mxCell id="MvRHuvZ1edDw_HGWbF9z-9" value="2" style="shape=partialRectangle;html=1;whiteSpace=wrap;connectable=0;strokeColor=#36393d;overflow=hidden;fillColor=#f9f7ed;top=0;left=0;bottom=0;right=0;pointerEvents=1;fontSize=16;" parent="MvRHuvZ1edDw_HGWbF9z-6" vertex="1">
          <mxGeometry x="472" width="110" height="40" as="geometry">
            <mxRectangle width="110" height="40" as="alternateBounds" />
          </mxGeometry>
        </mxCell>
        <mxCell id="MvRHuvZ1edDw_HGWbF9z-15" value="2" style="shape=partialRectangle;html=1;whiteSpace=wrap;connectable=0;strokeColor=#36393d;overflow=hidden;fillColor=#f9f7ed;top=0;left=0;bottom=0;right=0;pointerEvents=1;fontSize=16;" parent="MvRHuvZ1edDw_HGWbF9z-6" vertex="1">
          <mxGeometry x="582" width="100" height="40" as="geometry">
            <mxRectangle width="100" height="40" as="alternateBounds" />
          </mxGeometry>
        </mxCell>
        <mxCell id="MvRHuvZ1edDw_HGWbF9z-18" value="2022-09-01" style="shape=partialRectangle;html=1;whiteSpace=wrap;connectable=0;strokeColor=#36393d;overflow=hidden;fillColor=#f9f7ed;top=0;left=0;bottom=0;right=0;pointerEvents=1;fontSize=16;" parent="MvRHuvZ1edDw_HGWbF9z-6" vertex="1">
          <mxGeometry x="682" width="160" height="40" as="geometry">
            <mxRectangle width="160" height="40" as="alternateBounds" />
          </mxGeometry>
        </mxCell>
        <mxCell id="MvRHuvZ1edDw_HGWbF9z-21" value="2022-12-31" style="shape=partialRectangle;html=1;whiteSpace=wrap;connectable=0;strokeColor=#36393d;overflow=hidden;fillColor=#f9f7ed;top=0;left=0;bottom=0;right=0;pointerEvents=1;fontSize=16;" parent="MvRHuvZ1edDw_HGWbF9z-6" vertex="1">
          <mxGeometry x="842" width="160" height="40" as="geometry">
            <mxRectangle width="160" height="40" as="alternateBounds" />
          </mxGeometry>
        </mxCell>
        <mxCell id="MvRHuvZ1edDw_HGWbF9z-51" style="shape=tableRow;horizontal=0;startSize=0;swimlaneHead=0;swimlaneBody=0;strokeColor=inherit;top=0;left=0;bottom=0;right=0;collapsible=0;dropTarget=0;fillColor=none;points=[[0,0.5],[1,0.5]];portConstraint=eastwest;fontSize=16;" parent="MvRHuvZ1edDw_HGWbF9z-1" vertex="1">
          <mxGeometry y="80" width="1002" height="40" as="geometry" />
        </mxCell>
        <mxCell id="MvRHuvZ1edDw_HGWbF9z-52" value="Advanced Power Mastery" style="shape=partialRectangle;html=1;whiteSpace=wrap;connectable=0;strokeColor=#36393d;overflow=hidden;fillColor=#eeeeee;top=0;left=0;bottom=0;right=0;pointerEvents=1;fontSize=16;" parent="MvRHuvZ1edDw_HGWbF9z-51" vertex="1">
          <mxGeometry width="262" height="40" as="geometry">
            <mxRectangle width="262" height="40" as="alternateBounds" />
          </mxGeometry>
        </mxCell>
        <mxCell id="MvRHuvZ1edDw_HGWbF9z-53" value="Titanium Templar" style="shape=partialRectangle;html=1;whiteSpace=wrap;connectable=0;strokeColor=#36393d;overflow=hidden;fillColor=#eeeeee;top=0;left=0;bottom=0;right=0;pointerEvents=1;fontSize=16;" parent="MvRHuvZ1edDw_HGWbF9z-51" vertex="1">
          <mxGeometry x="262" width="210" height="40" as="geometry">
            <mxRectangle width="210" height="40" as="alternateBounds" />
          </mxGeometry>
        </mxCell>
        <mxCell id="MvRHuvZ1edDw_HGWbF9z-54" value="2" style="shape=partialRectangle;html=1;whiteSpace=wrap;connectable=0;strokeColor=#36393d;overflow=hidden;fillColor=#eeeeee;top=0;left=0;bottom=0;right=0;pointerEvents=1;fontSize=16;" parent="MvRHuvZ1edDw_HGWbF9z-51" vertex="1">
          <mxGeometry x="472" width="110" height="40" as="geometry">
            <mxRectangle width="110" height="40" as="alternateBounds" />
          </mxGeometry>
        </mxCell>
        <mxCell id="MvRHuvZ1edDw_HGWbF9z-55" value="0" style="shape=partialRectangle;html=1;whiteSpace=wrap;connectable=0;strokeColor=#36393d;overflow=hidden;fillColor=#eeeeee;top=0;left=0;bottom=0;right=0;pointerEvents=1;fontSize=16;" parent="MvRHuvZ1edDw_HGWbF9z-51" vertex="1">
          <mxGeometry x="582" width="100" height="40" as="geometry">
            <mxRectangle width="100" height="40" as="alternateBounds" />
          </mxGeometry>
        </mxCell>
        <mxCell id="MvRHuvZ1edDw_HGWbF9z-56" value="2022-09-01" style="shape=partialRectangle;html=1;whiteSpace=wrap;connectable=0;strokeColor=#36393d;overflow=hidden;fillColor=#eeeeee;top=0;left=0;bottom=0;right=0;pointerEvents=1;fontSize=16;" parent="MvRHuvZ1edDw_HGWbF9z-51" vertex="1">
          <mxGeometry x="682" width="160" height="40" as="geometry">
            <mxRectangle width="160" height="40" as="alternateBounds" />
          </mxGeometry>
        </mxCell>
        <mxCell id="MvRHuvZ1edDw_HGWbF9z-57" value="2022-12-31" style="shape=partialRectangle;html=1;whiteSpace=wrap;connectable=0;strokeColor=#36393d;overflow=hidden;fillColor=#eeeeee;top=0;left=0;bottom=0;right=0;pointerEvents=1;fontSize=16;" parent="MvRHuvZ1edDw_HGWbF9z-51" vertex="1">
          <mxGeometry x="842" width="160" height="40" as="geometry">
            <mxRectangle width="160" height="40" as="alternateBounds" />
          </mxGeometry>
        </mxCell>
        <mxCell id="MvRHuvZ1edDw_HGWbF9z-44" style="shape=tableRow;horizontal=0;startSize=0;swimlaneHead=0;swimlaneBody=0;strokeColor=inherit;top=0;left=0;bottom=0;right=0;collapsible=0;dropTarget=0;fillColor=none;points=[[0,0.5],[1,0.5]];portConstraint=eastwest;fontSize=16;" parent="MvRHuvZ1edDw_HGWbF9z-1" vertex="1">
          <mxGeometry y="120" width="1002" height="40" as="geometry" />
        </mxCell>
        <mxCell id="MvRHuvZ1edDw_HGWbF9z-45" value="Advanced Tech Integration" style="shape=partialRectangle;html=1;whiteSpace=wrap;connectable=0;strokeColor=#36393d;overflow=hidden;fillColor=#f9f7ed;top=0;left=0;bottom=0;right=0;pointerEvents=1;fontSize=16;" parent="MvRHuvZ1edDw_HGWbF9z-44" vertex="1">
          <mxGeometry width="262" height="40" as="geometry">
            <mxRectangle width="262" height="40" as="alternateBounds" />
          </mxGeometry>
        </mxCell>
        <mxCell id="MvRHuvZ1edDw_HGWbF9z-46" value="Ms. Mirage" style="shape=partialRectangle;html=1;whiteSpace=wrap;connectable=0;strokeColor=#36393d;overflow=hidden;fillColor=#f9f7ed;top=0;left=0;bottom=0;right=0;pointerEvents=1;fontSize=16;" parent="MvRHuvZ1edDw_HGWbF9z-44" vertex="1">
          <mxGeometry x="262" width="210" height="40" as="geometry">
            <mxRectangle width="210" height="40" as="alternateBounds" />
          </mxGeometry>
        </mxCell>
        <mxCell id="MvRHuvZ1edDw_HGWbF9z-47" value="3" style="shape=partialRectangle;html=1;whiteSpace=wrap;connectable=0;strokeColor=#36393d;overflow=hidden;fillColor=#f9f7ed;top=0;left=0;bottom=0;right=0;pointerEvents=1;fontSize=16;" parent="MvRHuvZ1edDw_HGWbF9z-44" vertex="1">
          <mxGeometry x="472" width="110" height="40" as="geometry">
            <mxRectangle width="110" height="40" as="alternateBounds" />
          </mxGeometry>
        </mxCell>
        <mxCell id="MvRHuvZ1edDw_HGWbF9z-48" value="4" style="shape=partialRectangle;html=1;whiteSpace=wrap;connectable=0;strokeColor=#36393d;overflow=hidden;fillColor=#f9f7ed;top=0;left=0;bottom=0;right=0;pointerEvents=1;fontSize=16;" parent="MvRHuvZ1edDw_HGWbF9z-44" vertex="1">
          <mxGeometry x="582" width="100" height="40" as="geometry">
            <mxRectangle width="100" height="40" as="alternateBounds" />
          </mxGeometry>
        </mxCell>
        <mxCell id="MvRHuvZ1edDw_HGWbF9z-49" value="2022-09-01" style="shape=partialRectangle;html=1;whiteSpace=wrap;connectable=0;strokeColor=#36393d;overflow=hidden;fillColor=#f9f7ed;top=0;left=0;bottom=0;right=0;pointerEvents=1;fontSize=16;" parent="MvRHuvZ1edDw_HGWbF9z-44" vertex="1">
          <mxGeometry x="682" width="160" height="40" as="geometry">
            <mxRectangle width="160" height="40" as="alternateBounds" />
          </mxGeometry>
        </mxCell>
        <mxCell id="MvRHuvZ1edDw_HGWbF9z-50" value="2022-12-31" style="shape=partialRectangle;html=1;whiteSpace=wrap;connectable=0;strokeColor=#36393d;overflow=hidden;fillColor=#f9f7ed;top=0;left=0;bottom=0;right=0;pointerEvents=1;fontSize=16;" parent="MvRHuvZ1edDw_HGWbF9z-44" vertex="1">
          <mxGeometry x="842" width="160" height="40" as="geometry">
            <mxRectangle width="160" height="40" as="alternateBounds" />
          </mxGeometry>
        </mxCell>
        <mxCell id="MvRHuvZ1edDw_HGWbF9z-37" style="shape=tableRow;horizontal=0;startSize=0;swimlaneHead=0;swimlaneBody=0;strokeColor=inherit;top=0;left=0;bottom=0;right=0;collapsible=0;dropTarget=0;fillColor=none;points=[[0,0.5],[1,0.5]];portConstraint=eastwest;fontSize=16;" parent="MvRHuvZ1edDw_HGWbF9z-1" vertex="1">
          <mxGeometry y="160" width="1002" height="40" as="geometry" />
        </mxCell>
        <mxCell id="MvRHuvZ1edDw_HGWbF9z-38" value="Advanced Tech Integration" style="shape=partialRectangle;html=1;whiteSpace=wrap;connectable=0;strokeColor=#36393d;overflow=hidden;fillColor=#eeeeee;top=0;left=0;bottom=0;right=0;pointerEvents=1;fontSize=16;" parent="MvRHuvZ1edDw_HGWbF9z-37" vertex="1">
          <mxGeometry width="262" height="40" as="geometry">
            <mxRectangle width="262" height="40" as="alternateBounds" />
          </mxGeometry>
        </mxCell>
        <mxCell id="MvRHuvZ1edDw_HGWbF9z-39" value="Nimbus Knight" style="shape=partialRectangle;html=1;whiteSpace=wrap;connectable=0;strokeColor=#36393d;overflow=hidden;fillColor=#eeeeee;top=0;left=0;bottom=0;right=0;pointerEvents=1;fontSize=16;" parent="MvRHuvZ1edDw_HGWbF9z-37" vertex="1">
          <mxGeometry x="262" width="210" height="40" as="geometry">
            <mxRectangle width="210" height="40" as="alternateBounds" />
          </mxGeometry>
        </mxCell>
        <mxCell id="MvRHuvZ1edDw_HGWbF9z-40" value="2" style="shape=partialRectangle;html=1;whiteSpace=wrap;connectable=0;strokeColor=#36393d;overflow=hidden;fillColor=#eeeeee;top=0;left=0;bottom=0;right=0;pointerEvents=1;fontSize=16;" parent="MvRHuvZ1edDw_HGWbF9z-37" vertex="1">
          <mxGeometry x="472" width="110" height="40" as="geometry">
            <mxRectangle width="110" height="40" as="alternateBounds" />
          </mxGeometry>
        </mxCell>
        <mxCell id="MvRHuvZ1edDw_HGWbF9z-41" value="0" style="shape=partialRectangle;html=1;whiteSpace=wrap;connectable=0;strokeColor=#36393d;overflow=hidden;fillColor=#eeeeee;top=0;left=0;bottom=0;right=0;pointerEvents=1;fontSize=16;" parent="MvRHuvZ1edDw_HGWbF9z-37" vertex="1">
          <mxGeometry x="582" width="100" height="40" as="geometry">
            <mxRectangle width="100" height="40" as="alternateBounds" />
          </mxGeometry>
        </mxCell>
        <mxCell id="MvRHuvZ1edDw_HGWbF9z-42" value="2022-09-01" style="shape=partialRectangle;html=1;whiteSpace=wrap;connectable=0;strokeColor=#36393d;overflow=hidden;fillColor=#eeeeee;top=0;left=0;bottom=0;right=0;pointerEvents=1;fontSize=16;" parent="MvRHuvZ1edDw_HGWbF9z-37" vertex="1">
          <mxGeometry x="682" width="160" height="40" as="geometry">
            <mxRectangle width="160" height="40" as="alternateBounds" />
          </mxGeometry>
        </mxCell>
        <mxCell id="MvRHuvZ1edDw_HGWbF9z-43" value="2022-12-31" style="shape=partialRectangle;html=1;whiteSpace=wrap;connectable=0;strokeColor=#36393d;overflow=hidden;fillColor=#eeeeee;top=0;left=0;bottom=0;right=0;pointerEvents=1;fontSize=16;" parent="MvRHuvZ1edDw_HGWbF9z-37" vertex="1">
          <mxGeometry x="842" width="160" height="40" as="geometry">
            <mxRectangle width="160" height="40" as="alternateBounds" />
          </mxGeometry>
        </mxCell>
        <mxCell id="MvRHuvZ1edDw_HGWbF9z-30" style="shape=tableRow;horizontal=0;startSize=0;swimlaneHead=0;swimlaneBody=0;strokeColor=inherit;top=0;left=0;bottom=0;right=0;collapsible=0;dropTarget=0;fillColor=none;points=[[0,0.5],[1,0.5]];portConstraint=eastwest;fontSize=16;" parent="MvRHuvZ1edDw_HGWbF9z-1" vertex="1">
          <mxGeometry y="200" width="1002" height="40" as="geometry" />
        </mxCell>
        <mxCell id="MvRHuvZ1edDw_HGWbF9z-31" value="Algebra" style="shape=partialRectangle;html=1;whiteSpace=wrap;connectable=0;strokeColor=#36393d;overflow=hidden;fillColor=#f9f7ed;top=0;left=0;bottom=0;right=0;pointerEvents=1;fontSize=16;" parent="MvRHuvZ1edDw_HGWbF9z-30" vertex="1">
          <mxGeometry width="262" height="40" as="geometry">
            <mxRectangle width="262" height="40" as="alternateBounds" />
          </mxGeometry>
        </mxCell>
        <mxCell id="MvRHuvZ1edDw_HGWbF9z-32" value="Chronos" style="shape=partialRectangle;html=1;whiteSpace=wrap;connectable=0;strokeColor=#36393d;overflow=hidden;fillColor=#f9f7ed;top=0;left=0;bottom=0;right=0;pointerEvents=1;fontSize=16;" parent="MvRHuvZ1edDw_HGWbF9z-30" vertex="1">
          <mxGeometry x="262" width="210" height="40" as="geometry">
            <mxRectangle width="210" height="40" as="alternateBounds" />
          </mxGeometry>
        </mxCell>
        <mxCell id="MvRHuvZ1edDw_HGWbF9z-33" value="2" style="shape=partialRectangle;html=1;whiteSpace=wrap;connectable=0;strokeColor=#36393d;overflow=hidden;fillColor=#f9f7ed;top=0;left=0;bottom=0;right=0;pointerEvents=1;fontSize=16;" parent="MvRHuvZ1edDw_HGWbF9z-30" vertex="1">
          <mxGeometry x="472" width="110" height="40" as="geometry">
            <mxRectangle width="110" height="40" as="alternateBounds" />
          </mxGeometry>
        </mxCell>
        <mxCell id="MvRHuvZ1edDw_HGWbF9z-34" value="3" style="shape=partialRectangle;html=1;whiteSpace=wrap;connectable=0;strokeColor=#36393d;overflow=hidden;fillColor=#f9f7ed;top=0;left=0;bottom=0;right=0;pointerEvents=1;fontSize=16;" parent="MvRHuvZ1edDw_HGWbF9z-30" vertex="1">
          <mxGeometry x="582" width="100" height="40" as="geometry">
            <mxRectangle width="100" height="40" as="alternateBounds" />
          </mxGeometry>
        </mxCell>
        <mxCell id="MvRHuvZ1edDw_HGWbF9z-35" value="2022-09-01" style="shape=partialRectangle;html=1;whiteSpace=wrap;connectable=0;strokeColor=#36393d;overflow=hidden;fillColor=#f9f7ed;top=0;left=0;bottom=0;right=0;pointerEvents=1;fontSize=16;" parent="MvRHuvZ1edDw_HGWbF9z-30" vertex="1">
          <mxGeometry x="682" width="160" height="40" as="geometry">
            <mxRectangle width="160" height="40" as="alternateBounds" />
          </mxGeometry>
        </mxCell>
        <mxCell id="MvRHuvZ1edDw_HGWbF9z-36" value="2022-12-31" style="shape=partialRectangle;html=1;whiteSpace=wrap;connectable=0;strokeColor=#36393d;overflow=hidden;fillColor=#f9f7ed;top=0;left=0;bottom=0;right=0;pointerEvents=1;fontSize=16;" parent="MvRHuvZ1edDw_HGWbF9z-30" vertex="1">
          <mxGeometry x="842" width="160" height="40" as="geometry">
            <mxRectangle width="160" height="40" as="alternateBounds" />
          </mxGeometry>
        </mxCell>
        <mxCell id="MvRHuvZ1edDw_HGWbF9z-23" style="shape=tableRow;horizontal=0;startSize=0;swimlaneHead=0;swimlaneBody=0;strokeColor=inherit;top=0;left=0;bottom=0;right=0;collapsible=0;dropTarget=0;fillColor=none;points=[[0,0.5],[1,0.5]];portConstraint=eastwest;fontSize=16;" parent="MvRHuvZ1edDw_HGWbF9z-1" vertex="1">
          <mxGeometry y="240" width="1002" height="40" as="geometry" />
        </mxCell>
        <mxCell id="MvRHuvZ1edDw_HGWbF9z-24" value="Algebra" style="shape=partialRectangle;html=1;whiteSpace=wrap;connectable=0;strokeColor=#36393d;overflow=hidden;fillColor=#eeeeee;top=0;left=0;bottom=0;right=0;pointerEvents=1;fontSize=16;" parent="MvRHuvZ1edDw_HGWbF9z-23" vertex="1">
          <mxGeometry width="262" height="40" as="geometry">
            <mxRectangle width="262" height="40" as="alternateBounds" />
          </mxGeometry>
        </mxCell>
        <mxCell id="MvRHuvZ1edDw_HGWbF9z-25" value="Electra Storm" style="shape=partialRectangle;html=1;whiteSpace=wrap;connectable=0;strokeColor=#36393d;overflow=hidden;fillColor=#eeeeee;top=0;left=0;bottom=0;right=0;pointerEvents=1;fontSize=16;" parent="MvRHuvZ1edDw_HGWbF9z-23" vertex="1">
          <mxGeometry x="262" width="210" height="40" as="geometry">
            <mxRectangle width="210" height="40" as="alternateBounds" />
          </mxGeometry>
        </mxCell>
        <mxCell id="MvRHuvZ1edDw_HGWbF9z-26" value="2" style="shape=partialRectangle;html=1;whiteSpace=wrap;connectable=0;strokeColor=#36393d;overflow=hidden;fillColor=#eeeeee;top=0;left=0;bottom=0;right=0;pointerEvents=1;fontSize=16;" parent="MvRHuvZ1edDw_HGWbF9z-23" vertex="1">
          <mxGeometry x="472" width="110" height="40" as="geometry">
            <mxRectangle width="110" height="40" as="alternateBounds" />
          </mxGeometry>
        </mxCell>
        <mxCell id="MvRHuvZ1edDw_HGWbF9z-27" value="4" style="shape=partialRectangle;html=1;whiteSpace=wrap;connectable=0;strokeColor=#36393d;overflow=hidden;fillColor=#eeeeee;top=0;left=0;bottom=0;right=0;pointerEvents=1;fontSize=16;" parent="MvRHuvZ1edDw_HGWbF9z-23" vertex="1">
          <mxGeometry x="582" width="100" height="40" as="geometry">
            <mxRectangle width="100" height="40" as="alternateBounds" />
          </mxGeometry>
        </mxCell>
        <mxCell id="MvRHuvZ1edDw_HGWbF9z-28" value="2022-09-01" style="shape=partialRectangle;html=1;whiteSpace=wrap;connectable=0;strokeColor=#36393d;overflow=hidden;fillColor=#eeeeee;top=0;left=0;bottom=0;right=0;pointerEvents=1;fontSize=16;" parent="MvRHuvZ1edDw_HGWbF9z-23" vertex="1">
          <mxGeometry x="682" width="160" height="40" as="geometry">
            <mxRectangle width="160" height="40" as="alternateBounds" />
          </mxGeometry>
        </mxCell>
        <mxCell id="MvRHuvZ1edDw_HGWbF9z-29" value="2022-12-31" style="shape=partialRectangle;html=1;whiteSpace=wrap;connectable=0;strokeColor=#36393d;overflow=hidden;fillColor=#eeeeee;top=0;left=0;bottom=0;right=0;pointerEvents=1;fontSize=16;" parent="MvRHuvZ1edDw_HGWbF9z-23" vertex="1">
          <mxGeometry x="842" width="160" height="40" as="geometry">
            <mxRectangle width="160" height="40" as="alternateBounds" />
          </mxGeometry>
        </mxCell>
        <mxCell id="MvRHuvZ1edDw_HGWbF9z-10" value="" style="shape=tableRow;horizontal=0;startSize=0;swimlaneHead=0;swimlaneBody=0;strokeColor=inherit;top=0;left=0;bottom=0;right=0;collapsible=0;dropTarget=0;fillColor=none;points=[[0,0.5],[1,0.5]];portConstraint=eastwest;fontSize=16;" parent="MvRHuvZ1edDw_HGWbF9z-1" vertex="1">
          <mxGeometry y="280" width="1002" height="40" as="geometry" />
        </mxCell>
        <mxCell id="MvRHuvZ1edDw_HGWbF9z-11" value="Basic Power Mastery" style="shape=partialRectangle;html=1;whiteSpace=wrap;connectable=0;strokeColor=#36393d;overflow=hidden;fillColor=#f9f7ed;top=0;left=0;bottom=0;right=0;pointerEvents=1;fontSize=16;" parent="MvRHuvZ1edDw_HGWbF9z-10" vertex="1">
          <mxGeometry width="262" height="40" as="geometry">
            <mxRectangle width="262" height="40" as="alternateBounds" />
          </mxGeometry>
        </mxCell>
        <mxCell id="MvRHuvZ1edDw_HGWbF9z-12" value="Chronos" style="shape=partialRectangle;html=1;whiteSpace=wrap;connectable=0;strokeColor=#36393d;overflow=hidden;fillColor=#f9f7ed;top=0;left=0;bottom=0;right=0;pointerEvents=1;fontSize=16;" parent="MvRHuvZ1edDw_HGWbF9z-10" vertex="1">
          <mxGeometry x="262" width="210" height="40" as="geometry">
            <mxRectangle width="210" height="40" as="alternateBounds" />
          </mxGeometry>
        </mxCell>
        <mxCell id="MvRHuvZ1edDw_HGWbF9z-13" value="2" style="shape=partialRectangle;html=1;whiteSpace=wrap;connectable=0;strokeColor=#36393d;overflow=hidden;fillColor=#f9f7ed;top=0;left=0;bottom=0;right=0;pointerEvents=1;fontSize=16;" parent="MvRHuvZ1edDw_HGWbF9z-10" vertex="1">
          <mxGeometry x="472" width="110" height="40" as="geometry">
            <mxRectangle width="110" height="40" as="alternateBounds" />
          </mxGeometry>
        </mxCell>
        <mxCell id="MvRHuvZ1edDw_HGWbF9z-16" value="4" style="shape=partialRectangle;html=1;whiteSpace=wrap;connectable=0;strokeColor=#36393d;overflow=hidden;fillColor=#f9f7ed;top=0;left=0;bottom=0;right=0;pointerEvents=1;fontSize=16;" parent="MvRHuvZ1edDw_HGWbF9z-10" vertex="1">
          <mxGeometry x="582" width="100" height="40" as="geometry">
            <mxRectangle width="100" height="40" as="alternateBounds" />
          </mxGeometry>
        </mxCell>
        <mxCell id="MvRHuvZ1edDw_HGWbF9z-19" value="2022-09-01" style="shape=partialRectangle;html=1;whiteSpace=wrap;connectable=0;strokeColor=#36393d;overflow=hidden;fillColor=#f9f7ed;top=0;left=0;bottom=0;right=0;pointerEvents=1;fontSize=16;" parent="MvRHuvZ1edDw_HGWbF9z-10" vertex="1">
          <mxGeometry x="682" width="160" height="40" as="geometry">
            <mxRectangle width="160" height="40" as="alternateBounds" />
          </mxGeometry>
        </mxCell>
        <mxCell id="MvRHuvZ1edDw_HGWbF9z-22" value="2022-12-31" style="shape=partialRectangle;html=1;whiteSpace=wrap;connectable=0;strokeColor=#36393d;overflow=hidden;fillColor=#f9f7ed;top=0;left=0;bottom=0;right=0;pointerEvents=1;fontSize=16;" parent="MvRHuvZ1edDw_HGWbF9z-10" vertex="1">
          <mxGeometry x="842" width="160" height="40" as="geometry">
            <mxRectangle width="160" height="40" as="alternateBounds" />
          </mxGeometry>
        </mxCell>
        <mxCell id="MvRHuvZ1edDw_HGWbF9z-60" style="shape=tableRow;horizontal=0;startSize=0;swimlaneHead=0;swimlaneBody=0;strokeColor=inherit;top=0;left=0;bottom=0;right=0;collapsible=0;dropTarget=0;fillColor=none;points=[[0,0.5],[1,0.5]];portConstraint=eastwest;fontSize=16;" parent="MvRHuvZ1edDw_HGWbF9z-1" vertex="1">
          <mxGeometry y="320" width="1002" height="40" as="geometry" />
        </mxCell>
        <mxCell id="MvRHuvZ1edDw_HGWbF9z-61" value="Basic Power Mastery" style="shape=partialRectangle;html=1;whiteSpace=wrap;connectable=0;strokeColor=#36393d;overflow=hidden;fillColor=#eeeeee;top=0;left=0;bottom=0;right=0;pointerEvents=1;fontSize=16;" parent="MvRHuvZ1edDw_HGWbF9z-60" vertex="1">
          <mxGeometry width="262" height="40" as="geometry">
            <mxRectangle width="262" height="40" as="alternateBounds" />
          </mxGeometry>
        </mxCell>
        <mxCell id="MvRHuvZ1edDw_HGWbF9z-62" value="Electra Storm" style="shape=partialRectangle;html=1;whiteSpace=wrap;connectable=0;strokeColor=#36393d;overflow=hidden;fillColor=#eeeeee;top=0;left=0;bottom=0;right=0;pointerEvents=1;fontSize=16;" parent="MvRHuvZ1edDw_HGWbF9z-60" vertex="1">
          <mxGeometry x="262" width="210" height="40" as="geometry">
            <mxRectangle width="210" height="40" as="alternateBounds" />
          </mxGeometry>
        </mxCell>
        <mxCell id="MvRHuvZ1edDw_HGWbF9z-63" value="2" style="shape=partialRectangle;html=1;whiteSpace=wrap;connectable=0;strokeColor=#36393d;overflow=hidden;fillColor=#eeeeee;top=0;left=0;bottom=0;right=0;pointerEvents=1;fontSize=16;" parent="MvRHuvZ1edDw_HGWbF9z-60" vertex="1">
          <mxGeometry x="472" width="110" height="40" as="geometry">
            <mxRectangle width="110" height="40" as="alternateBounds" />
          </mxGeometry>
        </mxCell>
        <mxCell id="MvRHuvZ1edDw_HGWbF9z-64" value="2" style="shape=partialRectangle;html=1;whiteSpace=wrap;connectable=0;strokeColor=#36393d;overflow=hidden;fillColor=#eeeeee;top=0;left=0;bottom=0;right=0;pointerEvents=1;fontSize=16;" parent="MvRHuvZ1edDw_HGWbF9z-60" vertex="1">
          <mxGeometry x="582" width="100" height="40" as="geometry">
            <mxRectangle width="100" height="40" as="alternateBounds" />
          </mxGeometry>
        </mxCell>
        <mxCell id="MvRHuvZ1edDw_HGWbF9z-65" value="2022-09-01" style="shape=partialRectangle;html=1;whiteSpace=wrap;connectable=0;strokeColor=#36393d;overflow=hidden;fillColor=#eeeeee;top=0;left=0;bottom=0;right=0;pointerEvents=1;fontSize=16;" parent="MvRHuvZ1edDw_HGWbF9z-60" vertex="1">
          <mxGeometry x="682" width="160" height="40" as="geometry">
            <mxRectangle width="160" height="40" as="alternateBounds" />
          </mxGeometry>
        </mxCell>
        <mxCell id="MvRHuvZ1edDw_HGWbF9z-66" value="2022-12-31" style="shape=partialRectangle;html=1;whiteSpace=wrap;connectable=0;strokeColor=#36393d;overflow=hidden;fillColor=#eeeeee;top=0;left=0;bottom=0;right=0;pointerEvents=1;fontSize=16;" parent="MvRHuvZ1edDw_HGWbF9z-60" vertex="1">
          <mxGeometry x="842" width="160" height="40" as="geometry">
            <mxRectangle width="160" height="40" as="alternateBounds" />
          </mxGeometry>
        </mxCell>
        <mxCell id="MvRHuvZ1edDw_HGWbF9z-59" value="" style="verticalLabelPosition=bottom;shadow=0;dashed=0;align=center;html=1;verticalAlign=top;strokeWidth=1;shape=mxgraph.mockup.navigation.scrollBar;strokeColor=#999999;barPos=99.394;fillColor2=#99ddff;strokeColor2=none;direction=north;" parent="1" vertex="1">
          <mxGeometry x="1050" y="230" width="20" height="350" as="geometry" />
        </mxCell>
        <mxCell id="DG9_N7Wq513RqgrVGhmh-1" value="Sections" style="html=1;shadow=0;dashed=0;shape=mxgraph.bootstrap.rrect;rSize=5;strokeColor=none;strokeWidth=1;fillColor=none;fontColor=#0085FC;whiteSpace=wrap;align=center;verticalAlign=middle;spacingLeft=0;fontStyle=0;fontSize=16;spacing=5;" parent="1" vertex="1">
          <mxGeometry x="800" y="93.5" width="80" height="40" as="geometry" />
        </mxCell>
        <mxCell id="DG9_N7Wq513RqgrVGhmh-2" value="Students" style="html=1;shadow=0;dashed=0;shape=mxgraph.bootstrap.rrect;rSize=5;strokeColor=none;strokeWidth=1;fillColor=none;fontColor=#0085FC;whiteSpace=wrap;align=center;verticalAlign=middle;spacingLeft=0;fontStyle=0;fontSize=16;spacing=5;" parent="1" vertex="1">
          <mxGeometry x="930" y="95" width="80" height="40" as="geometry" />
        </mxCell>
        <mxCell id="DG9_N7Wq513RqgrVGhmh-3" value="" style="endArrow=none;html=1;rounded=0;fillColor=#dae8fc;strokeColor=#6c8ebf;gradientColor=#7ea6e0;" parent="1" edge="1">
          <mxGeometry width="50" height="50" relative="1" as="geometry">
            <mxPoint x="795" y="127.5" as="sourcePoint" />
            <mxPoint x="885" y="127.5" as="targetPoint" />
          </mxGeometry>
        </mxCell>
        <mxCell id="DG9_N7Wq513RqgrVGhmh-5" value="&lt;font face=&quot;Helvetica&quot;&gt;01-09-2022&lt;/font&gt;" style="rounded=1;arcSize=9;fillColor=#F7F8F9;align=left;spacingLeft=5;strokeColor=#DEE1E6;html=1;strokeWidth=2;fontColor=#596780;fontSize=12;sketch=1;hachureGap=4;pointerEvents=0;fontFamily=Architects Daughter;fontSource=https%3A%2F%2Ffonts.googleapis.com%2Fcss%3Ffamily%3DArchitects%2BDaughter;" parent="1" vertex="1">
          <mxGeometry x="290.5" y="97" width="150" height="33" as="geometry" />
        </mxCell>
        <mxCell id="DG9_N7Wq513RqgrVGhmh-6" value="" style="shape=mxgraph.gmdl.calendar;fillColor=#5A6881;strokeColor=none;sketch=0;hachureGap=4;pointerEvents=0;fontFamily=Architects Daughter;fontSource=https%3A%2F%2Ffonts.googleapis.com%2Fcss%3Ffamily%3DArchitects%2BDaughter;fontSize=20;" parent="DG9_N7Wq513RqgrVGhmh-5" vertex="1">
          <mxGeometry x="1" y="0.5" width="18" height="18" relative="1" as="geometry">
            <mxPoint x="-29" y="-9" as="offset" />
          </mxGeometry>
        </mxCell>
        <mxCell id="DG9_N7Wq513RqgrVGhmh-7" value="From" style="text;html=1;align=center;verticalAlign=middle;whiteSpace=wrap;rounded=0;" parent="1" vertex="1">
          <mxGeometry x="230" y="98.5" width="60" height="30" as="geometry" />
        </mxCell>
        <mxCell id="DG9_N7Wq513RqgrVGhmh-8" value="To" style="text;html=1;align=center;verticalAlign=middle;whiteSpace=wrap;rounded=0;" parent="1" vertex="1">
          <mxGeometry x="460" y="98.5" width="30.5" height="30" as="geometry" />
        </mxCell>
        <mxCell id="DG9_N7Wq513RqgrVGhmh-9" value="&lt;font face=&quot;Helvetica&quot;&gt;31-12-2022&lt;/font&gt;" style="rounded=1;arcSize=9;fillColor=#F7F8F9;align=left;spacingLeft=5;strokeColor=#DEE1E6;html=1;strokeWidth=2;fontColor=#596780;fontSize=12;sketch=1;hachureGap=4;pointerEvents=0;fontFamily=Architects Daughter;fontSource=https%3A%2F%2Ffonts.googleapis.com%2Fcss%3Ffamily%3DArchitects%2BDaughter;" parent="1" vertex="1">
          <mxGeometry x="491" y="97" width="150" height="33" as="geometry" />
        </mxCell>
        <mxCell id="DG9_N7Wq513RqgrVGhmh-10" value="" style="shape=mxgraph.gmdl.calendar;fillColor=#5A6881;strokeColor=none;sketch=0;hachureGap=4;pointerEvents=0;fontFamily=Architects Daughter;fontSource=https%3A%2F%2Ffonts.googleapis.com%2Fcss%3Ffamily%3DArchitects%2BDaughter;fontSize=20;" parent="DG9_N7Wq513RqgrVGhmh-9" vertex="1">
          <mxGeometry x="1" y="0.5" width="18" height="18" relative="1" as="geometry">
            <mxPoint x="-29" y="-9" as="offset" />
          </mxGeometry>
        </mxCell>
        <mxCell id="6R6NeyUt-byFIt6EE1LK-1" value="" style="shape=table;startSize=0;container=1;collapsible=0;childLayout=tableLayout;fontSize=16;fillColor=#cce5ff;strokeColor=#36393d;" parent="1" vertex="1">
          <mxGeometry x="30" y="140" width="1040" height="80" as="geometry" />
        </mxCell>
        <mxCell id="6R6NeyUt-byFIt6EE1LK-2" value="" style="shape=tableRow;horizontal=0;startSize=0;swimlaneHead=0;swimlaneBody=0;strokeColor=inherit;top=0;left=0;bottom=0;right=0;collapsible=0;dropTarget=0;fillColor=none;points=[[0,0.5],[1,0.5]];portConstraint=eastwest;fontSize=16;" parent="6R6NeyUt-byFIt6EE1LK-1" vertex="1">
          <mxGeometry width="1040" height="41" as="geometry" />
        </mxCell>
        <mxCell id="6R6NeyUt-byFIt6EE1LK-3" value="# Total Enrollments" style="shape=partialRectangle;html=1;whiteSpace=wrap;connectable=0;strokeColor=inherit;overflow=hidden;fillColor=none;top=0;left=0;bottom=0;right=0;pointerEvents=1;fontSize=16;" parent="6R6NeyUt-byFIt6EE1LK-2" vertex="1">
          <mxGeometry width="522" height="41" as="geometry">
            <mxRectangle width="522" height="41" as="alternateBounds" />
          </mxGeometry>
        </mxCell>
        <mxCell id="6R6NeyUt-byFIt6EE1LK-4" value="# Total Absences" style="shape=partialRectangle;html=1;whiteSpace=wrap;connectable=0;strokeColor=inherit;overflow=hidden;fillColor=none;top=0;left=0;bottom=0;right=0;pointerEvents=1;fontSize=16;" parent="6R6NeyUt-byFIt6EE1LK-2" vertex="1">
          <mxGeometry x="522" width="518" height="41" as="geometry">
            <mxRectangle width="518" height="41" as="alternateBounds" />
          </mxGeometry>
        </mxCell>
        <mxCell id="6R6NeyUt-byFIt6EE1LK-6" value="" style="shape=tableRow;horizontal=0;startSize=0;swimlaneHead=0;swimlaneBody=0;strokeColor=inherit;top=0;left=0;bottom=0;right=0;collapsible=0;dropTarget=0;fillColor=none;points=[[0,0.5],[1,0.5]];portConstraint=eastwest;fontSize=16;" parent="6R6NeyUt-byFIt6EE1LK-1" vertex="1">
          <mxGeometry y="41" width="1040" height="39" as="geometry" />
        </mxCell>
        <mxCell id="6R6NeyUt-byFIt6EE1LK-7" value="140" style="shape=partialRectangle;html=1;whiteSpace=wrap;connectable=0;strokeColor=inherit;overflow=hidden;fillColor=none;top=0;left=0;bottom=0;right=0;pointerEvents=1;fontSize=16;" parent="6R6NeyUt-byFIt6EE1LK-6" vertex="1">
          <mxGeometry width="522" height="39" as="geometry">
            <mxRectangle width="522" height="39" as="alternateBounds" />
          </mxGeometry>
        </mxCell>
        <mxCell id="6R6NeyUt-byFIt6EE1LK-8" value="59" style="shape=partialRectangle;html=1;whiteSpace=wrap;connectable=0;strokeColor=inherit;overflow=hidden;fillColor=none;top=0;left=0;bottom=0;right=0;pointerEvents=1;fontSize=16;" parent="6R6NeyUt-byFIt6EE1LK-6" vertex="1">
          <mxGeometry x="522" width="518" height="39" as="geometry">
            <mxRectangle width="518" height="39" as="alternateBounds" />
          </mxGeometry>
        </mxCell>
      </root>
    </mxGraphModel>
  </diagram>
  <diagram id="MWmU_02_vFNEeT5P8D5L" name="Seite-2">
    <mxGraphModel dx="3354" dy="1258" grid="1" gridSize="10" guides="1" tooltips="1" connect="1" arrows="1" fold="1" page="1" pageScale="1" pageWidth="827" pageHeight="1169" math="0" shadow="0">
      <root>
        <mxCell id="0" />
        <mxCell id="1" parent="0" />
      </root>
    </mxGraphModel>
  </diagram>
</mxfile>
